<svg id="visual" viewBox="0 0 960 540" width="960" height="540" xmlns="http://www.w3.org/2000/svg" xmlns:xlink="http://www.w3.org/1999/xlink" version="1.1"><rect x="0" y="0" width="960" height="540" fill="#f2cd87"></rect><path d="M0 461L22.8 461C45.7 461 91.3 461 137 450.7C182.7 440.3 228.3 419.7 274 415C319.7 410.3 365.3 421.7 411.2 421C457 420.3 503 407.7 548.8 400.7C594.7 393.7 640.3 392.3 686 405.8C731.7 419.3 777.3 447.7 823 448.8C868.7 450 914.3 424 937.2 411L960 398L960 541L937.2 541C914.3 541 868.7 541 823 541C777.3 541 731.7 541 686 541C640.3 541 594.7 541 548.8 541C503 541 457 541 411.2 541C365.3 541 319.7 541 274 541C228.3 541 182.7 541 137 541C91.3 541 45.7 541 22.8 541L0 541Z" fill="#9c9b5d" stroke-linecap="round" stroke-linejoin="miter"></path></svg>